# xmcd CD database file
# Copyright (C) 1997 Ti Kan
#
# Track frame offsets:
#  150
#  13938
#  28633
#  45805
#  60830
#  82578
#  97615
#  118258
#  134733
#  149753
#  168685
#  181785
#  207553
#  240825
#
# Disc length: 3535 seconds
#
# Revision: 1
# Processed by: cddbd v1.4b41PL1 Copyright (c) Steve Scherf et al.
# Submitted via: CDWizzard Release:4.32
#
DISCID=b10dcd0e
DTITLE=Eddie "Cleanhead" Vinson - Kidney Stew
DYEAR=1900
DGENRE=
TTITLE0=Kidney Stew
TTITLE1=Wait A Minute Baby
TTITLE2=Old Maid Boogie
TTITLE3=Somebody's Got To Go
TTITLE4=Things Ain't What They Used To Be
TTITLE5=Wee Baby Blues
TTITLE6=Juice Head Baby
TTITLE7=I Had A Dream
TTITLE8=I'm In Awful Mood
TTITLE9=Please Send Me Someone To Love
TTITLE10=Person To Person
TTITLE11=Alimony Blues
TTITLE12=Hey Little Doggey
TTITLE13=Totsy
EXTD=
EXTT0=
EXTT1=
EXTT2=
EXTT3=
EXTT4=
EXTT5=
EXTT6=
EXTT7=
EXTT8=
EXTT9=
EXTT10=
EXTT11=
EXTT12=
EXTT13=
PLAYORDER=
